<?xml version="1.0" encoding="UTF-8" standalone="no"?>
<!DOCTYPE svg PUBLIC "-//W3C//DTD SVG 1.1//EN"
 "http://www.w3.org/Graphics/SVG/1.1/DTD/svg11.dtd">
<!-- Generated by graphviz version 2.43.0 (0)
 -->
<!-- Title: G Pages: 1 -->
<svg width="1622pt" height="261pt"
 viewBox="0.00 0.00 1622.08 261.19" xmlns="http://www.w3.org/2000/svg" xmlns:xlink="http://www.w3.org/1999/xlink">
<g id="graph0" class="graph" transform="scale(1 1) rotate(0) translate(4 257.19)">
<title>G</title>
<polygon fill="white" stroke="transparent" points="-4,4 -4,-257.19 1618.08,-257.19 1618.08,4 -4,4"/>
<!-- main -->
<g id="node1" class="node">
<title>main</title>
<ellipse fill="none" stroke="black" cx="175.36" cy="-174.87" rx="175.23" ry="26.74"/>
<text text-anchor="middle" x="175.36" y="-178.67" font-family="Times,serif" font-size="14.00">int main ()</text>
<text text-anchor="middle" x="175.36" y="-163.67" font-family="Times,serif" font-size="14.00">/root/rustmap/SCC_4/main.c:6</text>
</g>
<!-- printf -->
<g id="node2" class="node">
<title>printf</title>
<ellipse fill="none" stroke="black" cx="1569.88" cy="-163.87" rx="44.39" ry="18"/>
<text text-anchor="middle" x="1569.88" y="-160.17" font-family="Times,serif" font-size="14.00">printf()</text>
</g>
<!-- main&#45;&gt;printf -->
<g id="edge1" class="edge">
<title>main&#45;&gt;printf</title>
<path fill="none" stroke="black" d="M285.78,-195.79C318.18,-201.39 353.79,-206.97 386.72,-210.87 702.41,-248.29 783.69,-240.37 1101.55,-235.87 1274.11,-233.43 1327.12,-282.8 1489.69,-224.87 1511.07,-217.25 1531.27,-201.5 1545.92,-187.91"/>
<polygon fill="black" stroke="black" points="1548.69,-190.1 1553.46,-180.65 1543.83,-185.06 1548.69,-190.1"/>
</g>
<!-- funcB -->
<g id="node3" class="node">
<title>funcB</title>
<ellipse fill="none" stroke="black" cx="556.43" cy="-174.87" rx="169.91" ry="26.74"/>
<text text-anchor="middle" x="556.43" y="-178.67" font-family="Times,serif" font-size="14.00">void funcB (int n)</text>
<text text-anchor="middle" x="556.43" y="-163.67" font-family="Times,serif" font-size="14.00">/root/rustmap/SCC_4/dp1.c:5</text>
</g>
<!-- main&#45;&gt;funcB -->
<g id="edge2" class="edge">
<title>main&#45;&gt;funcB</title>
<path fill="none" stroke="black" d="M350.92,-174.87C359.34,-174.87 367.81,-174.87 376.25,-174.87"/>
<polygon fill="black" stroke="black" points="376.53,-178.37 386.53,-174.87 376.53,-171.37 376.53,-178.37"/>
</g>
<!-- funcC -->
<g id="node4" class="node">
<title>funcC</title>
<ellipse fill="none" stroke="black" cx="931.84" cy="-54.87" rx="169.91" ry="26.74"/>
<text text-anchor="middle" x="931.84" y="-58.67" font-family="Times,serif" font-size="14.00">int funcC (int n)</text>
<text text-anchor="middle" x="931.84" y="-43.67" font-family="Times,serif" font-size="14.00">/root/rustmap/SCC_4/dp4.c:5</text>
</g>
<!-- main&#45;&gt;funcC -->
<g id="edge3" class="edge">
<title>main&#45;&gt;funcC</title>
<path fill="none" stroke="black" d="M291.77,-154.77C322.6,-149.5 355.91,-143.88 386.72,-138.87 526.81,-116.07 687.45,-91.46 797.67,-74.81"/>
<polygon fill="black" stroke="black" points="798.48,-78.23 807.84,-73.27 797.43,-71.3 798.48,-78.23"/>
</g>
<!-- funcB&#45;&gt;printf -->
<g id="edge4" class="edge">
<title>funcB&#45;&gt;printf</title>
<path fill="none" stroke="black" d="M659.01,-196.33C691.77,-202.28 728.35,-207.92 762.14,-210.87 1084.4,-238.99 1171.75,-249.58 1489.69,-189.87 1502.24,-187.51 1515.56,-183.69 1527.61,-179.69"/>
<polygon fill="black" stroke="black" points="1529.09,-182.89 1537.4,-176.32 1526.81,-176.27 1529.09,-182.89"/>
</g>
<!-- funcA -->
<g id="node5" class="node">
<title>funcA</title>
<ellipse fill="none" stroke="black" cx="931.84" cy="-174.87" rx="169.91" ry="26.74"/>
<text text-anchor="middle" x="931.84" y="-178.67" font-family="Times,serif" font-size="14.00">void funcA (int n)</text>
<text text-anchor="middle" x="931.84" y="-163.67" font-family="Times,serif" font-size="14.00">/root/rustmap/SCC_4/dp2.c:5</text>
</g>
<!-- funcB&#45;&gt;funcA -->
<g id="edge5" class="edge">
<title>funcB&#45;&gt;funcA</title>
<path fill="none" stroke="black" d="M720.94,-168.17C732.97,-168.12 745.13,-168.11 757.21,-168.13"/>
<polygon fill="black" stroke="black" points="757.33,-171.64 767.34,-168.17 757.35,-164.64 757.33,-171.64"/>
</g>
<!-- funcC&#45;&gt;printf -->
<g id="edge10" class="edge">
<title>funcC&#45;&gt;printf</title>
<path fill="none" stroke="black" d="M1093.1,-63.35C1244.46,-72.14 1453.56,-86.56 1489.69,-100.87 1511.25,-109.41 1531.63,-125.89 1546.31,-139.86"/>
<polygon fill="black" stroke="black" points="1543.87,-142.36 1553.45,-146.87 1548.77,-137.37 1543.87,-142.36"/>
</g>
<!-- funcD -->
<g id="node7" class="node">
<title>funcD</title>
<ellipse fill="none" stroke="black" cx="1313.62" cy="-26.87" rx="169.91" ry="26.74"/>
<text text-anchor="middle" x="1313.62" y="-30.67" font-family="Times,serif" font-size="14.00">int funcD (int n)</text>
<text text-anchor="middle" x="1313.62" y="-15.67" font-family="Times,serif" font-size="14.00">/root/rustmap/SCC_4/dp3.c:5</text>
</g>
<!-- funcC&#45;&gt;funcD -->
<g id="edge11" class="edge">
<title>funcC&#45;&gt;funcD</title>
<path fill="none" stroke="black" d="M1066.74,-38.52C1089.53,-36.61 1113.51,-34.76 1137.19,-33.07"/>
<polygon fill="black" stroke="black" points="1137.59,-36.55 1147.32,-32.36 1137.09,-29.57 1137.59,-36.55"/>
</g>
<!-- funcA&#45;&gt;printf -->
<g id="edge6" class="edge">
<title>funcA&#45;&gt;printf</title>
<path fill="none" stroke="black" d="M1099.59,-179.03C1210.3,-180.63 1358.79,-180.52 1489.69,-172.87 1498.62,-172.35 1508.09,-171.52 1517.26,-170.56"/>
<polygon fill="black" stroke="black" points="1517.88,-174.02 1527.44,-169.45 1517.12,-167.06 1517.88,-174.02"/>
</g>
<!-- funcA&#45;&gt;funcB -->
<g id="edge8" class="edge">
<title>funcA&#45;&gt;funcB</title>
<path fill="none" stroke="black" d="M767.34,-181.57C755.31,-181.62 743.15,-181.63 731.07,-181.61"/>
<polygon fill="black" stroke="black" points="730.95,-178.11 720.94,-181.57 730.93,-185.11 730.95,-178.11"/>
</g>
<!-- happy -->
<g id="node6" class="node">
<title>happy</title>
<ellipse fill="none" stroke="black" cx="1313.62" cy="-136.87" rx="176.14" ry="26.74"/>
<text text-anchor="middle" x="1313.62" y="-140.67" font-family="Times,serif" font-size="14.00">int happy (int n)</text>
<text text-anchor="middle" x="1313.62" y="-125.67" font-family="Times,serif" font-size="14.00">/root/rustmap/SCC_4/dp3.c:14</text>
</g>
<!-- funcA&#45;&gt;happy -->
<g id="edge7" class="edge">
<title>funcA&#45;&gt;happy</title>
<path fill="none" stroke="black" d="M1075.61,-160.59C1101.82,-157.96 1129.3,-155.21 1155.89,-152.55"/>
<polygon fill="black" stroke="black" points="1156.44,-156.02 1166.04,-151.54 1155.74,-149.05 1156.44,-156.02"/>
</g>
<!-- happy&#45;&gt;printf -->
<g id="edge9" class="edge">
<title>happy&#45;&gt;printf</title>
<path fill="none" stroke="black" d="M1458.84,-152.18C1479.44,-154.37 1499.44,-156.5 1516.61,-158.32"/>
<polygon fill="black" stroke="black" points="1516.6,-161.84 1526.91,-159.41 1517.34,-154.88 1516.6,-161.84"/>
</g>
<!-- funcD&#45;&gt;printf -->
<g id="edge12" class="edge">
<title>funcD&#45;&gt;printf</title>
<path fill="none" stroke="black" d="M1438.74,-45.23C1456.6,-50.87 1474.17,-58.24 1489.69,-67.87 1517.6,-85.2 1540.29,-115.81 1554.12,-137.81"/>
<polygon fill="black" stroke="black" points="1551.13,-139.63 1559.32,-146.36 1557.11,-135.99 1551.13,-139.63"/>
</g>
<!-- funcD&#45;&gt;funcC -->
<g id="edge13" class="edge">
<title>funcD&#45;&gt;funcC</title>
<path fill="none" stroke="black" d="M1178.85,-43.21C1155.99,-45.12 1131.94,-46.98 1108.19,-48.67"/>
<polygon fill="black" stroke="black" points="1107.77,-45.2 1098.04,-49.39 1108.26,-52.18 1107.77,-45.2"/>
</g>
</g>
</svg>
