<?xml version="1.0" encoding="UTF-8" standalone="no"?>
<!DOCTYPE svg PUBLIC "-//W3C//DTD SVG 1.1//EN"
 "http://www.w3.org/Graphics/SVG/1.1/DTD/svg11.dtd">
<!-- Generated by graphviz version 10.0.1 (20240210.2158)
 -->
<!-- Title: G Pages: 1 -->
<svg width="805pt" height="255pt"
 viewBox="0.00 0.00 805.48 254.68" xmlns="http://www.w3.org/2000/svg" xmlns:xlink="http://www.w3.org/1999/xlink">
<g id="graph0" class="graph" transform="scale(1 1) rotate(0) translate(4 250.68)">
<title>G</title>
<polygon fill="white" stroke="none" points="-4,4 -4,-250.68 801.48,-250.68 801.48,4 -4,4"/>
<!-- main -->
<g id="node1" class="node">
<title>main</title>
<ellipse fill="none" stroke="black" cx="53.21" cy="-180.99" rx="53.21" ry="28.99"/>
<text text-anchor="middle" x="53.21" y="-184.19" font-family="Times,serif" font-size="14.00">int main ()</text>
<text text-anchor="middle" x="53.21" y="-167.69" font-family="Times,serif" font-size="14.00">main.i:628</text>
</g>
<!-- printf -->
<g id="node2" class="node">
<title>printf</title>
<ellipse fill="none" stroke="black" cx="759.95" cy="-170.99" rx="37.53" ry="18"/>
<text text-anchor="middle" x="759.95" y="-165.94" font-family="Times,serif" font-size="14.00">printf()</text>
</g>
<!-- main&#45;&gt;printf -->
<g id="edge1" class="edge">
<title>main&#45;&gt;printf</title>
<path fill="none" stroke="black" d="M92.82,-200.67C107.93,-207.55 125.63,-214.64 142.42,-218.99 297.17,-259.14 341.81,-245.03 501.57,-238.99 583.9,-235.88 609.24,-253.84 686.41,-224.99 704.1,-218.38 721.17,-206.07 734.31,-194.86"/>
<polygon fill="none" stroke="black" points="736.45,-197.64 741.6,-188.38 731.8,-192.41 736.45,-197.64"/>
</g>
<!-- funcB -->
<g id="node3" class="node">
<title>funcB</title>
<ellipse fill="yellow" stroke="black" cx="223.21" cy="-180.99" rx="80.79" ry="28.99"/>
<text text-anchor="middle" x="223.21" y="-184.19" font-family="Times,serif" font-size="14.00">void funcB (int n)</text>
<text text-anchor="middle" x="223.21" y="-167.69" font-family="Times,serif" font-size="14.00">dp1.i:629</text>
</g>
<!-- main&#45;&gt;funcB -->
<g id="edge2" class="edge">
<title>main&#45;&gt;funcB</title>
<path fill="none" stroke="black" d="M106.9,-180.99C114.49,-180.99 122.48,-180.99 130.56,-180.99"/>
<polygon fill="black" stroke="black" points="130.5,-184.49 140.5,-180.99 130.5,-177.49 130.5,-184.49"/>
</g>
<!-- funcC -->
<g id="node4" class="node">
<title>funcC</title>
<ellipse fill="red" stroke="black" cx="420.78" cy="-57.99" rx="73.89" ry="28.99"/>
<text text-anchor="middle" x="420.78" y="-61.19" font-family="Times,serif" font-size="14.00">int funcC (int n)</text>
<text text-anchor="middle" x="420.78" y="-44.69" font-family="Times,serif" font-size="14.00">dp4.i:627</text>
</g>
<!-- main&#45;&gt;funcC -->
<g id="edge3" class="edge">
<title>main&#45;&gt;funcC</title>
<path fill="none" stroke="black" d="M94.68,-162.46C109.55,-155.94 126.61,-148.8 142.42,-142.99 211.45,-117.63 291.96,-93.55 348.41,-77.54"/>
<polygon fill="black" stroke="black" points="349.24,-80.94 357.91,-74.85 347.33,-74.2 349.24,-80.94"/>
</g>
<!-- funcB&#45;&gt;printf -->
<g id="edge4" class="edge">
<title>funcB&#45;&gt;printf</title>
<path fill="none" stroke="black" d="M278.1,-202.61C297.31,-209.25 319.31,-215.68 339.99,-218.99 492.36,-243.35 536.1,-230.85 686.41,-195.99 697.39,-193.45 709.04,-189.85 719.71,-186.18"/>
<polygon fill="black" stroke="black" points="720.74,-189.53 728.98,-182.88 718.39,-182.94 720.74,-189.53"/>
</g>
<!-- funcA -->
<g id="node5" class="node">
<title>funcA</title>
<ellipse fill="yellow" stroke="black" cx="420.78" cy="-180.99" rx="80.79" ry="28.99"/>
<text text-anchor="middle" x="420.78" y="-184.19" font-family="Times,serif" font-size="14.00">void funcA (int n)</text>
<text text-anchor="middle" x="420.78" y="-167.69" font-family="Times,serif" font-size="14.00">dp2.i:627</text>
</g>
<!-- funcB&#45;&gt;funcA -->
<g id="edge5" class="edge">
<title>funcB&#45;&gt;funcA</title>
<path fill="none" stroke="black" d="M302.35,-174.36C311.57,-174.25 321.05,-174.21 330.41,-174.26"/>
<polygon fill="black" stroke="black" points="330.22,-177.76 340.25,-174.35 330.28,-170.76 330.22,-177.76"/>
</g>
<!-- funcC&#45;&gt;printf -->
<g id="edge10" class="edge">
<title>funcC&#45;&gt;printf</title>
<path fill="none" stroke="black" d="M492.32,-66.03C558.81,-74.41 653.07,-88.6 686.41,-104.99 706.15,-114.7 724.44,-131.41 737.71,-145.6"/>
<polygon fill="black" stroke="black" points="734.99,-147.8 744.29,-152.89 740.19,-143.12 734.99,-147.8"/>
</g>
<!-- funcD -->
<g id="node7" class="node">
<title>funcD</title>
<ellipse fill="red" stroke="black" cx="611.99" cy="-28.99" rx="74.42" ry="28.99"/>
<text text-anchor="middle" x="611.99" y="-32.19" font-family="Times,serif" font-size="14.00">int funcD (int n)</text>
<text text-anchor="middle" x="611.99" y="-15.69" font-family="Times,serif" font-size="14.00">dp3.i:627</text>
</g>
<!-- funcC&#45;&gt;funcD -->
<g id="edge11" class="edge">
<title>funcC&#45;&gt;funcD</title>
<path fill="none" stroke="black" d="M483.47,-42.16C497.39,-39.7 512.4,-37.28 527.06,-35.14"/>
<polygon fill="black" stroke="black" points="527.28,-38.65 536.69,-33.78 526.29,-31.72 527.28,-38.65"/>
</g>
<!-- funcA&#45;&gt;printf -->
<g id="edge6" class="edge">
<title>funcA&#45;&gt;printf</title>
<path fill="none" stroke="black" d="M501.49,-183.83C554.07,-185 624.42,-185.24 686.41,-180.99 694.97,-180.4 704.05,-179.43 712.78,-178.32"/>
<polygon fill="black" stroke="black" points="713.06,-181.81 722.5,-177 712.12,-174.88 713.06,-181.81"/>
</g>
<!-- funcA&#45;&gt;funcB -->
<g id="edge8" class="edge">
<title>funcA&#45;&gt;funcB</title>
<path fill="none" stroke="black" d="M341.77,-187.62C332.54,-187.73 323.07,-187.77 313.7,-187.72"/>
<polygon fill="black" stroke="black" points="313.89,-184.22 303.86,-187.63 313.83,-191.22 313.89,-184.22"/>
</g>
<!-- happy -->
<g id="node6" class="node">
<title>happy</title>
<ellipse fill="none" stroke="black" cx="611.99" cy="-142.99" rx="73.89" ry="28.99"/>
<text text-anchor="middle" x="611.99" y="-146.19" font-family="Times,serif" font-size="14.00">int happy (int n)</text>
<text text-anchor="middle" x="611.99" y="-129.69" font-family="Times,serif" font-size="14.00">dp3.i:636</text>
</g>
<!-- funcA&#45;&gt;happy -->
<g id="edge7" class="edge">
<title>funcA&#45;&gt;happy</title>
<path fill="none" stroke="black" d="M491.97,-166.9C505.82,-164.11 520.43,-161.18 534.49,-158.36"/>
<polygon fill="black" stroke="black" points="535.02,-161.82 544.13,-156.42 533.64,-154.96 535.02,-161.82"/>
</g>
<!-- happy&#45;&gt;printf -->
<g id="edge9" class="edge">
<title>happy&#45;&gt;printf</title>
<path fill="none" stroke="black" d="M679.14,-155.68C690.78,-157.91 702.66,-160.19 713.57,-162.29"/>
<polygon fill="black" stroke="black" points="712.57,-165.66 723.05,-164.11 713.89,-158.78 712.57,-165.66"/>
</g>
<!-- funcD&#45;&gt;printf -->
<g id="edge12" class="edge">
<title>funcD&#45;&gt;printf</title>
<path fill="none" stroke="black" d="M658.86,-51.95C668.48,-57.8 678.19,-64.57 686.41,-71.99 709.66,-92.97 730.12,-122.48 743.33,-143.82"/>
<polygon fill="black" stroke="black" points="740.27,-145.52 748.43,-152.27 746.26,-141.9 740.27,-145.52"/>
</g>
<!-- funcD&#45;&gt;funcC -->
<g id="edge13" class="edge">
<title>funcD&#45;&gt;funcC</title>
<path fill="none" stroke="black" d="M549.17,-44.84C535.16,-47.32 520.05,-49.75 505.3,-51.9"/>
<polygon fill="black" stroke="black" points="505.03,-48.4 495.62,-53.27 506.01,-55.33 505.03,-48.4"/>
</g>
</g>
</svg>
