<?xml version="1.0" encoding="UTF-8" standalone="no"?>
<!DOCTYPE svg PUBLIC "-//W3C//DTD SVG 1.1//EN"
 "http://www.w3.org/Graphics/SVG/1.1/DTD/svg11.dtd">
<!-- Generated by graphviz version 2.43.0 (0)
 -->
<!-- Title: G Pages: 1 -->
<svg width="1694pt" height="262pt"
 viewBox="0.00 0.00 1694.20 261.73" xmlns="http://www.w3.org/2000/svg" xmlns:xlink="http://www.w3.org/1999/xlink">
<g id="graph0" class="graph" transform="scale(1 1) rotate(0) translate(4 257.73)">
<title>G</title>
<polygon fill="white" stroke="transparent" points="-4,4 -4,-257.73 1690.2,-257.73 1690.2,4 -4,4"/>
<!-- main -->
<g id="node1" class="node">
<title>main</title>
<ellipse fill="none" stroke="black" cx="185.97" cy="-174.87" rx="185.94" ry="26.74"/>
<text text-anchor="middle" x="185.97" y="-178.67" font-family="Times,serif" font-size="14.00">int main ()</text>
<text text-anchor="middle" x="185.97" y="-163.67" font-family="Times,serif" font-size="14.00">/root/rustmap/SCC_4/main.i:628</text>
</g>
<!-- printf -->
<g id="node2" class="node">
<title>printf</title>
<ellipse fill="none" stroke="black" cx="1642.01" cy="-163.87" rx="44.39" ry="18"/>
<text text-anchor="middle" x="1642.01" y="-160.17" font-family="Times,serif" font-size="14.00">printf()</text>
</g>
<!-- main&#45;&gt;printf -->
<g id="edge1" class="edge">
<title>main&#45;&gt;printf</title>
<path fill="none" stroke="black" d="M302.22,-195.85C336.17,-201.43 373.47,-206.99 407.94,-210.87 742.56,-248.58 828.48,-240.54 1165.19,-235.87 1341.52,-233.43 1395.68,-284.02 1561.81,-224.87 1583.19,-217.26 1603.4,-201.5 1618.05,-187.91"/>
<polygon fill="black" stroke="black" points="1620.81,-190.11 1625.59,-180.65 1615.96,-185.07 1620.81,-190.11"/>
</g>
<!-- funcB -->
<g id="node3" class="node">
<title>funcB</title>
<ellipse fill="none" stroke="black" cx="588.25" cy="-174.87" rx="180.12" ry="26.74"/>
<text text-anchor="middle" x="588.25" y="-178.67" font-family="Times,serif" font-size="14.00">void funcB (int n)</text>
<text text-anchor="middle" x="588.25" y="-163.67" font-family="Times,serif" font-size="14.00">/root/rustmap/SCC_4/dp1.i:629</text>
</g>
<!-- main&#45;&gt;funcB -->
<g id="edge2" class="edge">
<title>main&#45;&gt;funcB</title>
<path fill="none" stroke="black" d="M372.17,-174.87C380.7,-174.87 389.27,-174.87 397.81,-174.87"/>
<polygon fill="black" stroke="black" points="397.83,-178.37 407.83,-174.87 397.83,-171.37 397.83,-178.37"/>
</g>
<!-- funcC -->
<g id="node4" class="node">
<title>funcC</title>
<ellipse fill="none" stroke="black" cx="984.87" cy="-54.87" rx="180.12" ry="26.74"/>
<text text-anchor="middle" x="984.87" y="-58.67" font-family="Times,serif" font-size="14.00">int funcC (int n)</text>
<text text-anchor="middle" x="984.87" y="-43.67" font-family="Times,serif" font-size="14.00">/root/rustmap/SCC_4/dp4.i:627</text>
</g>
<!-- main&#45;&gt;funcC -->
<g id="edge3" class="edge">
<title>main&#45;&gt;funcC</title>
<path fill="none" stroke="black" d="M308.77,-154.65C341,-149.41 375.77,-143.84 407.94,-138.87 556.4,-115.95 726.67,-91.32 843.34,-74.7"/>
<polygon fill="black" stroke="black" points="843.99,-78.14 853.4,-73.27 843.01,-71.21 843.99,-78.14"/>
</g>
<!-- funcB&#45;&gt;printf -->
<g id="edge4" class="edge">
<title>funcB&#45;&gt;printf</title>
<path fill="none" stroke="black" d="M696.41,-196.38C730.8,-202.32 769.15,-207.93 804.56,-210.87 1140.09,-238.73 1230.88,-251.82 1561.81,-189.87 1574.37,-187.52 1587.68,-183.7 1599.74,-179.7"/>
<polygon fill="black" stroke="black" points="1601.21,-182.89 1609.53,-176.33 1598.93,-176.28 1601.21,-182.89"/>
</g>
<!-- funcA -->
<g id="node5" class="node">
<title>funcA</title>
<ellipse fill="none" stroke="black" cx="984.87" cy="-174.87" rx="180.12" ry="26.74"/>
<text text-anchor="middle" x="984.87" y="-178.67" font-family="Times,serif" font-size="14.00">void funcA (int n)</text>
<text text-anchor="middle" x="984.87" y="-163.67" font-family="Times,serif" font-size="14.00">/root/rustmap/SCC_4/dp2.i:627</text>
</g>
<!-- funcB&#45;&gt;funcA -->
<g id="edge5" class="edge">
<title>funcB&#45;&gt;funcA</title>
<path fill="none" stroke="black" d="M762.91,-168.16C775.19,-168.12 787.59,-168.11 799.92,-168.13"/>
<polygon fill="black" stroke="black" points="800.25,-171.63 810.26,-168.16 800.27,-164.63 800.25,-171.63"/>
</g>
<!-- funcC&#45;&gt;printf -->
<g id="edge10" class="edge">
<title>funcC&#45;&gt;printf</title>
<path fill="none" stroke="black" d="M1156.04,-63.42C1312.2,-72.08 1524.78,-86.26 1561.81,-100.87 1583.38,-109.38 1603.76,-125.86 1618.45,-139.84"/>
<polygon fill="black" stroke="black" points="1616,-142.34 1625.58,-146.86 1620.91,-137.35 1616,-142.34"/>
</g>
<!-- funcD -->
<g id="node7" class="node">
<title>funcD</title>
<ellipse fill="none" stroke="black" cx="1381.5" cy="-26.87" rx="180.12" ry="26.74"/>
<text text-anchor="middle" x="1381.5" y="-30.67" font-family="Times,serif" font-size="14.00">int funcD (int n)</text>
<text text-anchor="middle" x="1381.5" y="-15.67" font-family="Times,serif" font-size="14.00">/root/rustmap/SCC_4/dp3.i:627</text>
</g>
<!-- funcC&#45;&gt;funcD -->
<g id="edge11" class="edge">
<title>funcC&#45;&gt;funcD</title>
<path fill="none" stroke="black" d="M1127.23,-38.34C1149.19,-36.58 1172.16,-34.87 1194.92,-33.3"/>
<polygon fill="black" stroke="black" points="1195.27,-36.78 1205.01,-32.61 1194.79,-29.8 1195.27,-36.78"/>
</g>
<!-- funcA&#45;&gt;printf -->
<g id="edge6" class="edge">
<title>funcA&#45;&gt;printf</title>
<path fill="none" stroke="black" d="M1162.8,-179.27C1276.81,-180.86 1428.18,-180.67 1561.81,-172.87 1570.74,-172.35 1580.22,-171.52 1589.39,-170.56"/>
<polygon fill="black" stroke="black" points="1590.01,-174.02 1599.57,-169.45 1589.25,-167.06 1590.01,-174.02"/>
</g>
<!-- funcA&#45;&gt;funcB -->
<g id="edge8" class="edge">
<title>funcA&#45;&gt;funcB</title>
<path fill="none" stroke="black" d="M810.26,-181.58C797.98,-181.62 785.58,-181.63 773.25,-181.61"/>
<polygon fill="black" stroke="black" points="772.92,-178.11 762.91,-181.58 772.9,-185.11 772.92,-178.11"/>
</g>
<!-- happy -->
<g id="node6" class="node">
<title>happy</title>
<ellipse fill="none" stroke="black" cx="1381.5" cy="-136.87" rx="180.12" ry="26.74"/>
<text text-anchor="middle" x="1381.5" y="-140.67" font-family="Times,serif" font-size="14.00">int happy (int n)</text>
<text text-anchor="middle" x="1381.5" y="-125.67" font-family="Times,serif" font-size="14.00">/root/rustmap/SCC_4/dp3.i:636</text>
</g>
<!-- funcA&#45;&gt;happy -->
<g id="edge7" class="edge">
<title>funcA&#45;&gt;happy</title>
<path fill="none" stroke="black" d="M1136.75,-160.34C1163.88,-157.73 1192.26,-155 1219.66,-152.36"/>
<polygon fill="black" stroke="black" points="1220.08,-155.83 1229.7,-151.39 1219.41,-148.87 1220.08,-155.83"/>
</g>
<!-- happy&#45;&gt;printf -->
<g id="edge9" class="edge">
<title>happy&#45;&gt;printf</title>
<path fill="none" stroke="black" d="M1529.5,-152.22C1550.79,-154.45 1571.42,-156.6 1589.02,-158.44"/>
<polygon fill="black" stroke="black" points="1588.72,-161.93 1599.02,-159.49 1589.44,-154.97 1588.72,-161.93"/>
</g>
<!-- funcD&#45;&gt;printf -->
<g id="edge12" class="edge">
<title>funcD&#45;&gt;printf</title>
<path fill="none" stroke="black" d="M1511.49,-45.5C1529.15,-51.1 1546.46,-58.39 1561.81,-67.87 1589.77,-85.12 1612.45,-115.75 1626.27,-137.77"/>
<polygon fill="black" stroke="black" points="1623.28,-139.6 1631.46,-146.33 1629.26,-135.97 1623.28,-139.6"/>
</g>
<!-- funcD&#45;&gt;funcC -->
<g id="edge13" class="edge">
<title>funcD&#45;&gt;funcC</title>
<path fill="none" stroke="black" d="M1239.08,-43.41C1217.11,-45.17 1194.13,-46.87 1171.35,-48.45"/>
<polygon fill="black" stroke="black" points="1171,-44.96 1161.26,-49.14 1171.48,-51.95 1171,-44.96"/>
</g>
</g>
</svg>
