<?xml version="1.0" encoding="UTF-8" standalone="no"?>
<!DOCTYPE svg PUBLIC "-//W3C//DTD SVG 1.1//EN"
 "http://www.w3.org/Graphics/SVG/1.1/DTD/svg11.dtd">
<!-- Generated by graphviz version 10.0.1 (20240210.2158)
 -->
<!-- Title: G Pages: 1 -->
<svg width="854pt" height="294pt"
 viewBox="0.00 0.00 854.27 293.98" xmlns="http://www.w3.org/2000/svg" xmlns:xlink="http://www.w3.org/1999/xlink">
<g id="graph0" class="graph" transform="scale(1 1) rotate(0) translate(4 289.98)">
<title>G</title>
<polygon fill="white" stroke="none" points="-4,4 -4,-289.98 850.27,-289.98 850.27,4 -4,4"/>
<!-- main -->
<g id="node1" class="node">
<title>main</title>
<ellipse fill="none" stroke="black" cx="53.21" cy="-180.99" rx="53.21" ry="28.99"/>
<text text-anchor="middle" x="53.21" y="-184.19" font-family="Times,serif" font-size="14.00">int main ()</text>
<text text-anchor="middle" x="53.21" y="-167.69" font-family="Times,serif" font-size="14.00">main.i:451</text>
</g>
<!-- funcX -->
<g id="node2" class="node">
<title>funcX</title>
<ellipse fill="yellow" stroke="black" cx="247.6" cy="-256.99" rx="105.18" ry="28.99"/>
<text text-anchor="middle" x="247.6" y="-260.19" font-family="Times,serif" font-size="14.00">void funcX (User *user)</text>
<text text-anchor="middle" x="247.6" y="-243.69" font-family="Times,serif" font-size="14.00">dpx.i:447</text>
</g>
<!-- main&#45;&gt;funcX -->
<g id="edge1" class="edge">
<title>main&#45;&gt;funcX</title>
<path fill="none" stroke="black" d="M96.91,-197.86C120.07,-207.01 149.3,-218.55 175.77,-229.01"/>
<polygon fill="black" stroke="black" points="174.15,-232.13 184.74,-232.55 176.72,-225.62 174.15,-232.13"/>
</g>
<!-- printf -->
<g id="node3" class="node">
<title>printf</title>
<ellipse fill="none" stroke="black" cx="808.74" cy="-142.99" rx="37.53" ry="18"/>
<text text-anchor="middle" x="808.74" y="-137.94" font-family="Times,serif" font-size="14.00">printf()</text>
</g>
<!-- main&#45;&gt;printf -->
<g id="edge2" class="edge">
<title>main&#45;&gt;printf</title>
<path fill="none" stroke="black" d="M106.6,-178.35C246.21,-171.31 625.71,-152.17 759.92,-145.4"/>
<polygon fill="black" stroke="black" points="759.69,-148.92 769.51,-144.92 759.34,-141.93 759.69,-148.92"/>
</g>
<!-- funcB -->
<g id="node4" class="node">
<title>funcB</title>
<ellipse fill="#add8e6" stroke="black" cx="247.6" cy="-85.99" rx="80.79" ry="28.99"/>
<text text-anchor="middle" x="247.6" y="-89.19" font-family="Times,serif" font-size="14.00">void funcB (int n)</text>
<text text-anchor="middle" x="247.6" y="-72.69" font-family="Times,serif" font-size="14.00">dp1.i:432</text>
</g>
<!-- main&#45;&gt;funcB -->
<g id="edge3" class="edge">
<title>main&#45;&gt;funcB</title>
<path fill="none" stroke="black" d="M93.14,-161.77C120.57,-148.23 157.75,-129.86 188.65,-114.61"/>
<polygon fill="black" stroke="black" points="190.09,-117.8 197.51,-110.23 186.99,-111.52 190.09,-117.8"/>
</g>
<!-- funcC -->
<g id="node5" class="node">
<title>funcC</title>
<ellipse fill="#90ee90" stroke="black" cx="469.57" cy="-218.99" rx="73.89" ry="28.99"/>
<text text-anchor="middle" x="469.57" y="-222.19" font-family="Times,serif" font-size="14.00">int funcC (int n)</text>
<text text-anchor="middle" x="469.57" y="-205.69" font-family="Times,serif" font-size="14.00">dp4.i:428</text>
</g>
<!-- main&#45;&gt;funcC -->
<g id="edge4" class="edge">
<title>main&#45;&gt;funcC</title>
<path fill="none" stroke="black" d="M105.85,-185.73C176.06,-192.17 302.43,-203.75 385.91,-211.41"/>
<polygon fill="black" stroke="black" points="385.36,-214.87 395.64,-212.3 386,-207.9 385.36,-214.87"/>
</g>
<!-- funcX&#45;&gt;funcC -->
<g id="edge5" class="edge">
<title>funcX&#45;&gt;funcC</title>
<path fill="none" stroke="black" d="M337.44,-241.64C354.95,-238.62 373.2,-235.47 390.33,-232.51"/>
<polygon fill="black" stroke="black" points="390.65,-236 399.91,-230.85 389.46,-229.11 390.65,-236"/>
</g>
<!-- funcB&#45;&gt;printf -->
<g id="edge10" class="edge">
<title>funcB&#45;&gt;printf</title>
<path fill="none" stroke="black" d="M323.1,-96.71C344.3,-99.59 367.43,-102.58 388.78,-104.99 523.04,-120.17 682.05,-133.26 759.92,-139.35"/>
<polygon fill="black" stroke="black" points="759.51,-142.83 769.75,-140.11 760.05,-135.85 759.51,-142.83"/>
</g>
<!-- funcA -->
<g id="node7" class="node">
<title>funcA</title>
<ellipse fill="#add8e6" stroke="black" cx="469.57" cy="-66.99" rx="80.79" ry="28.99"/>
<text text-anchor="middle" x="469.57" y="-70.19" font-family="Times,serif" font-size="14.00">void funcA (int n)</text>
<text text-anchor="middle" x="469.57" y="-53.69" font-family="Times,serif" font-size="14.00">dp2.i:429</text>
</g>
<!-- funcB&#45;&gt;funcA -->
<g id="edge11" class="edge">
<title>funcB&#45;&gt;funcA</title>
<path fill="none" stroke="black" d="M320.93,-73.36C338.96,-71.44 358.52,-69.66 377.32,-68.21"/>
<polygon fill="black" stroke="black" points="377.38,-71.72 387.09,-67.49 376.86,-64.74 377.38,-71.72"/>
</g>
<!-- funcC&#45;&gt;printf -->
<g id="edge6" class="edge">
<title>funcC&#45;&gt;printf</title>
<path fill="none" stroke="black" d="M516.2,-241.62C571.48,-265.57 665.83,-295.08 735.2,-256.99 768.1,-238.93 788.2,-198.93 798.66,-171.46"/>
<polygon fill="black" stroke="black" points="801.85,-172.93 801.93,-162.34 795.26,-170.57 801.85,-172.93"/>
</g>
<!-- funcD -->
<g id="node6" class="node">
<title>funcD</title>
<ellipse fill="#90ee90" stroke="black" cx="660.78" cy="-218.99" rx="74.42" ry="28.99"/>
<text text-anchor="middle" x="660.78" y="-222.19" font-family="Times,serif" font-size="14.00">int funcD (int n)</text>
<text text-anchor="middle" x="660.78" y="-205.69" font-family="Times,serif" font-size="14.00">dp3.i:429</text>
</g>
<!-- funcC&#45;&gt;funcD -->
<g id="edge7" class="edge">
<title>funcC&#45;&gt;funcD</title>
<path fill="none" stroke="black" d="M541.83,-212.43C553.15,-212.24 564.94,-212.2 576.5,-212.28"/>
<polygon fill="black" stroke="black" points="576.4,-215.78 586.44,-212.4 576.48,-208.78 576.4,-215.78"/>
</g>
<!-- funcD&#45;&gt;printf -->
<g id="edge8" class="edge">
<title>funcD&#45;&gt;printf</title>
<path fill="none" stroke="black" d="M706.37,-195.78C727.54,-184.75 752.5,-171.75 772.35,-161.42"/>
<polygon fill="black" stroke="black" points="773.91,-164.55 781.16,-156.83 770.68,-158.34 773.91,-164.55"/>
</g>
<!-- funcD&#45;&gt;funcC -->
<g id="edge9" class="edge">
<title>funcD&#45;&gt;funcC</title>
<path fill="none" stroke="black" d="M587.95,-225.56C576.62,-225.74 564.83,-225.79 553.28,-225.69"/>
<polygon fill="black" stroke="black" points="553.39,-222.19 543.35,-225.57 553.3,-229.19 553.39,-222.19"/>
</g>
<!-- funcA&#45;&gt;printf -->
<g id="edge12" class="edge">
<title>funcA&#45;&gt;printf</title>
<path fill="none" stroke="black" d="M548.23,-74.11C601.63,-80.33 673.73,-91.38 735.2,-109.99 747.77,-113.8 761,-119.32 772.66,-124.76"/>
<polygon fill="black" stroke="black" points="770.98,-127.83 781.5,-129.03 774.02,-121.53 770.98,-127.83"/>
</g>
<!-- funcA&#45;&gt;funcB -->
<g id="edge14" class="edge">
<title>funcA&#45;&gt;funcB</title>
<path fill="none" stroke="black" d="M396.25,-79.62C378.24,-81.54 358.7,-83.32 339.91,-84.77"/>
<polygon fill="black" stroke="black" points="339.86,-81.26 330.15,-85.49 340.38,-88.24 339.86,-81.26"/>
</g>
<!-- happy -->
<g id="node8" class="node">
<title>happy</title>
<ellipse fill="none" stroke="black" cx="660.78" cy="-28.99" rx="73.89" ry="28.99"/>
<text text-anchor="middle" x="660.78" y="-32.19" font-family="Times,serif" font-size="14.00">int happy (int n)</text>
<text text-anchor="middle" x="660.78" y="-15.69" font-family="Times,serif" font-size="14.00">dp3.i:438</text>
</g>
<!-- funcA&#45;&gt;happy -->
<g id="edge13" class="edge">
<title>funcA&#45;&gt;happy</title>
<path fill="none" stroke="black" d="M540.76,-52.9C554.62,-50.11 569.22,-47.18 583.28,-44.36"/>
<polygon fill="black" stroke="black" points="583.81,-47.82 592.92,-42.42 582.43,-40.96 583.81,-47.82"/>
</g>
<!-- happy&#45;&gt;printf -->
<g id="edge15" class="edge">
<title>happy&#45;&gt;printf</title>
<path fill="none" stroke="black" d="M705.63,-52.3C715.65,-58.27 726.05,-65 735.2,-71.99 753.35,-85.85 771.71,-103.87 785.41,-118.29"/>
<polygon fill="black" stroke="black" points="782.49,-120.28 791.88,-125.19 787.6,-115.5 782.49,-120.28"/>
</g>
</g>
</svg>
