<?xml version="1.0" encoding="UTF-8" standalone="no"?>
<!DOCTYPE svg PUBLIC "-//W3C//DTD SVG 1.1//EN"
 "http://www.w3.org/Graphics/SVG/1.1/DTD/svg11.dtd">
<!-- Generated by graphviz version 10.0.1 (20240210.2158)
 -->
<!-- Title: G Pages: 1 -->
<svg width="854pt" height="370pt"
 viewBox="0.00 0.00 854.27 369.98" xmlns="http://www.w3.org/2000/svg" xmlns:xlink="http://www.w3.org/1999/xlink">
<g id="graph0" class="graph" transform="scale(1 1) rotate(0) translate(4 365.98)">
<title>G</title>
<polygon fill="white" stroke="none" points="-4,4 -4,-365.98 850.27,-365.98 850.27,4 -4,4"/>
<!-- main -->
<g id="node1" class="node">
<title>main</title>
<ellipse fill="none" stroke="black" cx="53.21" cy="-246.99" rx="53.21" ry="28.99"/>
<text text-anchor="middle" x="53.21" y="-250.19" font-family="Times,serif" font-size="14.00">int main ()</text>
<text text-anchor="middle" x="53.21" y="-233.69" font-family="Times,serif" font-size="14.00">main.i:450</text>
</g>
<!-- funcX -->
<g id="node2" class="node">
<title>funcX</title>
<ellipse fill="none" stroke="black" cx="247.6" cy="-332.99" rx="105.18" ry="28.99"/>
<text text-anchor="middle" x="247.6" y="-336.19" font-family="Times,serif" font-size="14.00">void funcX (User *user)</text>
<text text-anchor="middle" x="247.6" y="-319.69" font-family="Times,serif" font-size="14.00">dpx.i:446</text>
</g>
<!-- main&#45;&gt;funcX -->
<g id="edge1" class="edge">
<title>main&#45;&gt;funcX</title>
<path fill="none" stroke="black" d="M93.04,-266.57C108.33,-274.1 126.1,-282.66 142.42,-289.99 153.28,-294.88 164.87,-299.87 176.22,-304.64"/>
<polygon fill="black" stroke="black" points="174.58,-307.75 185.16,-308.37 177.28,-301.29 174.58,-307.75"/>
</g>
<!-- printf -->
<g id="node3" class="node">
<title>printf</title>
<ellipse fill="none" stroke="black" cx="808.74" cy="-199.99" rx="37.53" ry="18"/>
<text text-anchor="middle" x="808.74" y="-194.94" font-family="Times,serif" font-size="14.00">printf()</text>
</g>
<!-- main&#45;&gt;printf -->
<g id="edge2" class="edge">
<title>main&#45;&gt;printf</title>
<path fill="none" stroke="black" d="M106.13,-251.31C220.92,-259.6 504.39,-273.08 735.2,-226.99 746.86,-224.66 759.13,-220.72 770.19,-216.55"/>
<polygon fill="black" stroke="black" points="771.36,-219.85 779.38,-212.92 768.79,-213.34 771.36,-219.85"/>
</g>
<!-- funcB -->
<g id="node4" class="node">
<title>funcB</title>
<ellipse fill="none" stroke="black" cx="247.6" cy="-199.99" rx="80.79" ry="28.99"/>
<text text-anchor="middle" x="247.6" y="-203.19" font-family="Times,serif" font-size="14.00">void funcB (int n)</text>
<text text-anchor="middle" x="247.6" y="-186.69" font-family="Times,serif" font-size="14.00">dp1.i:432</text>
</g>
<!-- main&#45;&gt;funcB -->
<g id="edge3" class="edge">
<title>main&#45;&gt;funcB</title>
<path fill="none" stroke="black" d="M102.26,-235.25C122.44,-230.32 146.43,-224.46 169.01,-218.95"/>
<polygon fill="black" stroke="black" points="169.59,-222.41 178.48,-216.63 167.93,-215.61 169.59,-222.41"/>
</g>
<!-- funcC -->
<g id="node5" class="node">
<title>funcC</title>
<ellipse fill="none" stroke="black" cx="469.57" cy="-57.99" rx="73.89" ry="28.99"/>
<text text-anchor="middle" x="469.57" y="-61.19" font-family="Times,serif" font-size="14.00">int funcC (int n)</text>
<text text-anchor="middle" x="469.57" y="-44.69" font-family="Times,serif" font-size="14.00">dp4.i:429</text>
</g>
<!-- main&#45;&gt;funcC -->
<g id="edge4" class="edge">
<title>main&#45;&gt;funcC</title>
<path fill="none" stroke="black" d="M75.68,-220.64C92.18,-201.92 116.48,-177.46 142.42,-161.99 220.51,-115.42 321.74,-87.37 390.57,-72.34"/>
<polygon fill="black" stroke="black" points="391.23,-75.77 400.27,-70.26 389.76,-68.93 391.23,-75.77"/>
</g>
<!-- funcX&#45;&gt;printf -->
<g id="edge5" class="edge">
<title>funcX&#45;&gt;printf</title>
<path fill="none" stroke="black" d="M343.02,-345.57C445.8,-354.7 611.94,-355.79 735.2,-289.99 761.1,-276.17 781.09,-248.76 793.46,-227.8"/>
<polygon fill="black" stroke="black" points="796.47,-229.57 798.33,-219.14 790.37,-226.14 796.47,-229.57"/>
</g>
<!-- funcB&#45;&gt;printf -->
<g id="edge6" class="edge">
<title>funcB&#45;&gt;printf</title>
<path fill="none" stroke="black" d="M321.89,-211.82C343.39,-214.78 366.98,-217.52 388.78,-218.99 523.52,-228.08 682.94,-214.03 760.55,-205.59"/>
<polygon fill="black" stroke="black" points="760.78,-209.09 770.34,-204.51 760.01,-202.13 760.78,-209.09"/>
</g>
<!-- funcA -->
<g id="node6" class="node">
<title>funcA</title>
<ellipse fill="none" stroke="black" cx="469.57" cy="-180.99" rx="80.79" ry="28.99"/>
<text text-anchor="middle" x="469.57" y="-184.19" font-family="Times,serif" font-size="14.00">void funcA (int n)</text>
<text text-anchor="middle" x="469.57" y="-167.69" font-family="Times,serif" font-size="14.00">dp2.i:429</text>
</g>
<!-- funcB&#45;&gt;funcA -->
<g id="edge7" class="edge">
<title>funcB&#45;&gt;funcA</title>
<path fill="none" stroke="black" d="M320.93,-187.36C338.96,-185.44 358.52,-183.66 377.32,-182.21"/>
<polygon fill="black" stroke="black" points="377.38,-185.72 387.09,-181.49 376.86,-178.74 377.38,-185.72"/>
</g>
<!-- funcC&#45;&gt;printf -->
<g id="edge12" class="edge">
<title>funcC&#45;&gt;printf</title>
<path fill="none" stroke="black" d="M541.8,-64.77C608.82,-72.19 703.47,-85.66 735.2,-104.99 761.55,-121.04 781.76,-150.49 794.07,-172.36"/>
<polygon fill="black" stroke="black" points="790.93,-173.92 798.76,-181.07 797.1,-170.6 790.93,-173.92"/>
</g>
<!-- funcD -->
<g id="node8" class="node">
<title>funcD</title>
<ellipse fill="none" stroke="black" cx="660.78" cy="-28.99" rx="74.42" ry="28.99"/>
<text text-anchor="middle" x="660.78" y="-32.19" font-family="Times,serif" font-size="14.00">int funcD (int n)</text>
<text text-anchor="middle" x="660.78" y="-15.69" font-family="Times,serif" font-size="14.00">dp3.i:429</text>
</g>
<!-- funcC&#45;&gt;funcD -->
<g id="edge13" class="edge">
<title>funcC&#45;&gt;funcD</title>
<path fill="none" stroke="black" d="M532.26,-42.16C546.19,-39.7 561.19,-37.28 575.85,-35.14"/>
<polygon fill="black" stroke="black" points="576.07,-38.65 585.48,-33.78 575.08,-31.72 576.07,-38.65"/>
</g>
<!-- funcA&#45;&gt;printf -->
<g id="edge8" class="edge">
<title>funcA&#45;&gt;printf</title>
<path fill="none" stroke="black" d="M549.62,-185.45C614.72,-189.11 704.91,-194.2 759.63,-197.28"/>
<polygon fill="black" stroke="black" points="759.39,-200.77 769.57,-197.84 759.79,-193.78 759.39,-200.77"/>
</g>
<!-- funcA&#45;&gt;funcB -->
<g id="edge10" class="edge">
<title>funcA&#45;&gt;funcB</title>
<path fill="none" stroke="black" d="M396.25,-193.62C378.24,-195.54 358.7,-197.32 339.91,-198.77"/>
<polygon fill="black" stroke="black" points="339.86,-195.26 330.15,-199.49 340.38,-202.24 339.86,-195.26"/>
</g>
<!-- happy -->
<g id="node7" class="node">
<title>happy</title>
<ellipse fill="none" stroke="black" cx="660.78" cy="-142.99" rx="73.89" ry="28.99"/>
<text text-anchor="middle" x="660.78" y="-146.19" font-family="Times,serif" font-size="14.00">int happy (int n)</text>
<text text-anchor="middle" x="660.78" y="-129.69" font-family="Times,serif" font-size="14.00">dp3.i:438</text>
</g>
<!-- funcA&#45;&gt;happy -->
<g id="edge9" class="edge">
<title>funcA&#45;&gt;happy</title>
<path fill="none" stroke="black" d="M540.76,-166.9C554.62,-164.11 569.22,-161.18 583.28,-158.36"/>
<polygon fill="black" stroke="black" points="583.81,-161.82 592.92,-156.42 582.43,-154.96 583.81,-161.82"/>
</g>
<!-- happy&#45;&gt;printf -->
<g id="edge11" class="edge">
<title>happy&#45;&gt;printf</title>
<path fill="none" stroke="black" d="M714.06,-163.41C731.91,-170.38 751.56,-178.05 768.23,-184.56"/>
<polygon fill="black" stroke="black" points="766.71,-187.73 777.3,-188.11 769.26,-181.21 766.71,-187.73"/>
</g>
<!-- funcD&#45;&gt;printf -->
<g id="edge14" class="edge">
<title>funcD&#45;&gt;printf</title>
<path fill="none" stroke="black" d="M708.71,-51.49C718.16,-57.33 727.53,-64.21 735.2,-71.99 763.86,-101.06 785,-143.71 796.84,-171.66"/>
<polygon fill="black" stroke="black" points="793.46,-172.62 800.49,-180.55 799.93,-169.97 793.46,-172.62"/>
</g>
<!-- funcD&#45;&gt;funcC -->
<g id="edge15" class="edge">
<title>funcD&#45;&gt;funcC</title>
<path fill="none" stroke="black" d="M597.96,-44.84C583.95,-47.32 568.84,-49.75 554.09,-51.9"/>
<polygon fill="black" stroke="black" points="553.82,-48.4 544.41,-53.27 554.8,-55.33 553.82,-48.4"/>
</g>
</g>
</svg>
