<?xml version="1.0" encoding="UTF-8" standalone="no"?>
<!DOCTYPE svg PUBLIC "-//W3C//DTD SVG 1.1//EN"
 "http://www.w3.org/Graphics/SVG/1.1/DTD/svg11.dtd">
<!-- Generated by graphviz version 10.0.1 (20240210.2158)
 -->
<!-- Title: G Pages: 1 -->
<svg width="957pt" height="370pt"
 viewBox="0.00 0.00 957.15 369.98" xmlns="http://www.w3.org/2000/svg" xmlns:xlink="http://www.w3.org/1999/xlink">
<g id="graph0" class="graph" transform="scale(1 1) rotate(0) translate(4 365.98)">
<title>G</title>
<polygon fill="white" stroke="none" points="-4,4 -4,-365.98 953.15,-365.98 953.15,4 -4,4"/>
<!-- main -->
<g id="node1" class="node">
<title>main</title>
<ellipse fill="none" stroke="black" cx="53.21" cy="-246.99" rx="53.21" ry="28.99"/>
<text text-anchor="middle" x="53.21" y="-250.19" font-family="Times,serif" font-size="14.00">int main ()</text>
<text text-anchor="middle" x="53.21" y="-233.69" font-family="Times,serif" font-size="14.00">main.i:450</text>
</g>
<!-- funcComplexStruct -->
<g id="node2" class="node">
<title>funcComplexStruct</title>
<ellipse fill="cyan" stroke="black" cx="299.04" cy="-332.99" rx="156.62" ry="28.99"/>
<text text-anchor="middle" x="299.04" y="-336.19" font-family="Times,serif" font-size="14.00">void funcComplexStruct (User *user)</text>
<text text-anchor="middle" x="299.04" y="-319.69" font-family="Times,serif" font-size="14.00">dp_user_bank_account.i:446</text>
</g>
<!-- main&#45;&gt;funcComplexStruct -->
<g id="edge1" class="edge">
<title>main&#45;&gt;funcComplexStruct</title>
<path fill="none" stroke="black" d="M91.74,-267.18C107.16,-274.97 125.37,-283.54 142.42,-289.99 158.23,-295.97 175.22,-301.52 191.97,-306.51"/>
<polygon fill="black" stroke="black" points="190.89,-309.84 201.47,-309.28 192.85,-303.12 190.89,-309.84"/>
</g>
<!-- printf -->
<g id="node3" class="node">
<title>printf</title>
<ellipse fill="none" stroke="black" cx="911.62" cy="-199.99" rx="37.53" ry="18"/>
<text text-anchor="middle" x="911.62" y="-194.94" font-family="Times,serif" font-size="14.00">printf()</text>
</g>
<!-- main&#45;&gt;printf -->
<g id="edge2" class="edge">
<title>main&#45;&gt;printf</title>
<path fill="none" stroke="black" d="M106.7,-246.05C210.91,-244.13 451.27,-239.37 653.24,-232.99 735.41,-230.4 757.37,-241.6 838.09,-225.99 849.61,-223.76 861.76,-220.01 872.75,-216.03"/>
<polygon fill="black" stroke="black" points="873.76,-219.39 881.87,-212.57 871.28,-212.85 873.76,-219.39"/>
</g>
<!-- funcB -->
<g id="node4" class="node">
<title>funcB</title>
<ellipse fill="#ff9999" stroke="black" cx="299.04" cy="-199.99" rx="80.79" ry="28.99"/>
<text text-anchor="middle" x="299.04" y="-203.19" font-family="Times,serif" font-size="14.00">void funcB (int n)</text>
<text text-anchor="middle" x="299.04" y="-186.69" font-family="Times,serif" font-size="14.00">dp1.i:432</text>
</g>
<!-- main&#45;&gt;funcB -->
<g id="edge3" class="edge">
<title>main&#45;&gt;funcB</title>
<path fill="none" stroke="black" d="M103.85,-237.42C136.16,-231.19 179.09,-222.92 216.36,-215.74"/>
<polygon fill="black" stroke="black" points="216.57,-219.26 225.73,-213.93 215.25,-212.39 216.57,-219.26"/>
</g>
<!-- funcC -->
<g id="node5" class="node">
<title>funcC</title>
<ellipse fill="#ffcc00" stroke="black" cx="572.45" cy="-57.99" rx="73.89" ry="28.99"/>
<text text-anchor="middle" x="572.45" y="-61.19" font-family="Times,serif" font-size="14.00">int funcC (int n)</text>
<text text-anchor="middle" x="572.45" y="-44.69" font-family="Times,serif" font-size="14.00">dp4.i:429</text>
</g>
<!-- main&#45;&gt;funcC -->
<g id="edge4" class="edge">
<title>main&#45;&gt;funcC</title>
<path fill="none" stroke="black" d="M75.02,-220.49C91.36,-201.44 115.76,-176.63 142.42,-161.99 252.9,-101.3 398.5,-75.67 488.5,-65.09"/>
<polygon fill="black" stroke="black" points="488.69,-68.59 498.23,-63.99 487.9,-61.64 488.69,-68.59"/>
</g>
<!-- funcComplexStruct&#45;&gt;printf -->
<g id="edge5" class="edge">
<title>funcComplexStruct&#45;&gt;printf</title>
<path fill="none" stroke="black" d="M427.18,-350.04C541.43,-359.28 710.39,-357.47 838.09,-289.99 864.04,-276.28 884.02,-248.85 896.37,-227.86"/>
<polygon fill="black" stroke="black" points="899.4,-229.62 901.24,-219.19 893.29,-226.2 899.4,-229.62"/>
</g>
<!-- funcB&#45;&gt;printf -->
<g id="edge6" class="edge">
<title>funcB&#45;&gt;printf</title>
<path fill="none" stroke="black" d="M375.92,-209.26C411.07,-213.1 453.44,-217.1 491.67,-218.99 626.38,-225.65 785.5,-212.73 863.17,-205.07"/>
<polygon fill="black" stroke="black" points="863.36,-208.57 872.96,-204.09 862.66,-201.6 863.36,-208.57"/>
</g>
<!-- funcA -->
<g id="node6" class="node">
<title>funcA</title>
<ellipse fill="#ff9999" stroke="black" cx="572.45" cy="-180.99" rx="80.79" ry="28.99"/>
<text text-anchor="middle" x="572.45" y="-184.19" font-family="Times,serif" font-size="14.00">void funcA (int n)</text>
<text text-anchor="middle" x="572.45" y="-167.69" font-family="Times,serif" font-size="14.00">dp2.i:429</text>
</g>
<!-- funcB&#45;&gt;funcA -->
<g id="edge7" class="edge">
<title>funcB&#45;&gt;funcA</title>
<path fill="none" stroke="black" d="M373.85,-188.74C406.71,-185.68 445.74,-182.84 480.39,-180.95"/>
<polygon fill="black" stroke="black" points="480.16,-184.47 489.96,-180.45 479.79,-177.48 480.16,-184.47"/>
</g>
<!-- funcC&#45;&gt;printf -->
<g id="edge12" class="edge">
<title>funcC&#45;&gt;printf</title>
<path fill="none" stroke="black" d="M644.68,-64.77C711.7,-72.19 806.36,-85.66 838.09,-104.99 864.43,-121.04 884.64,-150.49 896.96,-172.36"/>
<polygon fill="black" stroke="black" points="893.82,-173.92 901.64,-181.07 899.98,-170.6 893.82,-173.92"/>
</g>
<!-- funcD -->
<g id="node8" class="node">
<title>funcD</title>
<ellipse fill="#ffcc00" stroke="black" cx="763.66" cy="-28.99" rx="74.42" ry="28.99"/>
<text text-anchor="middle" x="763.66" y="-32.19" font-family="Times,serif" font-size="14.00">int funcD (int n)</text>
<text text-anchor="middle" x="763.66" y="-15.69" font-family="Times,serif" font-size="14.00">dp3.i:429</text>
</g>
<!-- funcC&#45;&gt;funcD -->
<g id="edge13" class="edge">
<title>funcC&#45;&gt;funcD</title>
<path fill="none" stroke="black" d="M635.15,-42.16C649.07,-39.7 664.08,-37.28 678.74,-35.14"/>
<polygon fill="black" stroke="black" points="678.95,-38.65 688.36,-33.78 677.97,-31.72 678.95,-38.65"/>
</g>
<!-- funcA&#45;&gt;printf -->
<g id="edge8" class="edge">
<title>funcA&#45;&gt;printf</title>
<path fill="none" stroke="black" d="M652.51,-185.45C717.6,-189.11 807.8,-194.2 862.52,-197.28"/>
<polygon fill="black" stroke="black" points="862.28,-200.77 872.46,-197.84 862.67,-193.78 862.28,-200.77"/>
</g>
<!-- funcA&#45;&gt;funcB -->
<g id="edge10" class="edge">
<title>funcA&#45;&gt;funcB</title>
<path fill="none" stroke="black" d="M497.63,-192.24C464.76,-195.3 425.74,-198.15 391.09,-200.03"/>
<polygon fill="black" stroke="black" points="391.32,-196.51 381.52,-200.53 391.69,-203.51 391.32,-196.51"/>
</g>
<!-- happy -->
<g id="node7" class="node">
<title>happy</title>
<ellipse fill="none" stroke="black" cx="763.66" cy="-142.99" rx="73.89" ry="28.99"/>
<text text-anchor="middle" x="763.66" y="-146.19" font-family="Times,serif" font-size="14.00">int happy (int n)</text>
<text text-anchor="middle" x="763.66" y="-129.69" font-family="Times,serif" font-size="14.00">dp3.i:438</text>
</g>
<!-- funcA&#45;&gt;happy -->
<g id="edge9" class="edge">
<title>funcA&#45;&gt;happy</title>
<path fill="none" stroke="black" d="M643.64,-166.9C657.5,-164.11 672.11,-161.18 686.16,-158.36"/>
<polygon fill="black" stroke="black" points="686.69,-161.82 695.81,-156.42 685.31,-154.96 686.69,-161.82"/>
</g>
<!-- happy&#45;&gt;printf -->
<g id="edge11" class="edge">
<title>happy&#45;&gt;printf</title>
<path fill="none" stroke="black" d="M816.95,-163.41C834.79,-170.38 854.44,-178.05 871.12,-184.56"/>
<polygon fill="black" stroke="black" points="869.6,-187.73 880.18,-188.11 872.14,-181.21 869.6,-187.73"/>
</g>
<!-- funcD&#45;&gt;printf -->
<g id="edge14" class="edge">
<title>funcD&#45;&gt;printf</title>
<path fill="none" stroke="black" d="M811.59,-51.49C821.04,-57.33 830.41,-64.21 838.09,-71.99 866.74,-101.06 887.88,-143.71 899.73,-171.66"/>
<polygon fill="black" stroke="black" points="896.34,-172.62 903.37,-180.55 902.82,-169.97 896.34,-172.62"/>
</g>
<!-- funcD&#45;&gt;funcC -->
<g id="edge15" class="edge">
<title>funcD&#45;&gt;funcC</title>
<path fill="none" stroke="black" d="M700.85,-44.84C686.83,-47.32 671.72,-49.75 656.98,-51.9"/>
<polygon fill="black" stroke="black" points="656.7,-48.4 647.3,-53.27 657.69,-55.33 656.7,-48.4"/>
</g>
</g>
</svg>
