<?xml version="1.0" encoding="UTF-8" standalone="no"?>
<!DOCTYPE svg PUBLIC "-//W3C//DTD SVG 1.1//EN"
 "http://www.w3.org/Graphics/SVG/1.1/DTD/svg11.dtd">
<!-- Generated by graphviz version 10.0.1 (20240210.2158)
 -->
<!-- Title: G Pages: 1 -->
<svg width="3445pt" height="401pt"
 viewBox="0.00 0.00 3445.46 400.70" xmlns="http://www.w3.org/2000/svg" xmlns:xlink="http://www.w3.org/1999/xlink">
<g id="graph0" class="graph" transform="scale(1 1) rotate(0) translate(4 396.7)">
<title>G</title>
<polygon fill="white" stroke="none" points="-4,4 -4,-396.7 3441.46,-396.7 3441.46,4 -4,4"/>
<!-- main -->
<g id="node1" class="node">
<title>main</title>
<ellipse fill="none" stroke="black" cx="387.85" cy="-246.99" rx="387.85" ry="28.99"/>
<text text-anchor="middle" x="387.85" y="-250.19" font-family="Times,serif" font-size="14.00">int main ()</text>
<text text-anchor="middle" x="387.85" y="-233.69" font-family="Times,serif" font-size="14.00">/Users/mac/rustmap&#45;clone/SCC_recursive_study/SCC_4_RecursiveDependencyDemo/main.i:450</text>
</g>
<!-- funcX -->
<g id="node2" class="node">
<title>funcX</title>
<ellipse fill="none" stroke="black" cx="1267.96" cy="-332.99" rx="456.26" ry="28.99"/>
<text text-anchor="middle" x="1267.96" y="-336.19" font-family="Times,serif" font-size="14.00">void funcX (User *user)</text>
<text text-anchor="middle" x="1267.96" y="-319.69" font-family="Times,serif" font-size="14.00">/Users/mac/rustmap&#45;clone/SCC_recursive_study/SCC_4_RecursiveDependencyDemo/dp_user_bank_account.i:446</text>
</g>
<!-- main&#45;&gt;funcX -->
<g id="edge1" class="edge">
<title>main&#45;&gt;funcX</title>
<path fill="none" stroke="black" d="M618.7,-270.67C681.29,-277.03 749.09,-283.85 811.7,-289.99 871.29,-295.84 935.3,-301.97 995.93,-307.71"/>
<polygon fill="black" stroke="black" points="995.42,-311.18 1005.71,-308.64 996.08,-304.21 995.42,-311.18"/>
</g>
<!-- printf -->
<g id="node3" class="node">
<title>printf</title>
<ellipse fill="none" stroke="black" cx="3399.93" cy="-199.99" rx="37.53" ry="18"/>
<text text-anchor="middle" x="3399.93" y="-194.94" font-family="Times,serif" font-size="14.00">printf()</text>
</g>
<!-- main&#45;&gt;printf -->
<g id="edge2" class="edge">
<title>main&#45;&gt;printf</title>
<path fill="none" stroke="black" d="M775.78,-245.98C1203.76,-244.76 1913.77,-242.43 2525.31,-238.99 2881.35,-236.99 2978.71,-309.73 3326.4,-232.99 3339.67,-230.06 3353.43,-224.52 3365.36,-218.81"/>
<polygon fill="black" stroke="black" points="3366.6,-222.1 3373.96,-214.48 3363.45,-215.85 3366.6,-222.1"/>
</g>
<!-- funcB -->
<g id="node4" class="node">
<title>funcB</title>
<ellipse fill="none" stroke="black" cx="1267.96" cy="-199.99" rx="382.54" ry="28.99"/>
<text text-anchor="middle" x="1267.96" y="-203.19" font-family="Times,serif" font-size="14.00">void funcB (int n)</text>
<text text-anchor="middle" x="1267.96" y="-186.69" font-family="Times,serif" font-size="14.00">/Users/mac/rustmap&#45;clone/SCC_recursive_study/SCC_4_RecursiveDependencyDemo/dp1.i:432</text>
</g>
<!-- main&#45;&gt;funcB -->
<g id="edge3" class="edge">
<title>main&#45;&gt;funcB</title>
<path fill="none" stroke="black" d="M705.56,-230.04C782.36,-225.93 864.6,-221.53 941.79,-217.4"/>
<polygon fill="black" stroke="black" points="941.83,-220.9 951.63,-216.87 941.45,-213.91 941.83,-220.9"/>
</g>
<!-- funcC -->
<g id="node5" class="node">
<title>funcC</title>
<ellipse fill="none" stroke="black" cx="2142.76" cy="-57.99" rx="382.54" ry="28.99"/>
<text text-anchor="middle" x="2142.76" y="-61.19" font-family="Times,serif" font-size="14.00">int funcC (int n)</text>
<text text-anchor="middle" x="2142.76" y="-44.69" font-family="Times,serif" font-size="14.00">/Users/mac/rustmap&#45;clone/SCC_recursive_study/SCC_4_RecursiveDependencyDemo/dp4.i:429</text>
</g>
<!-- main&#45;&gt;funcC -->
<g id="edge4" class="edge">
<title>main&#45;&gt;funcC</title>
<path fill="none" stroke="black" d="M508.03,-219.04C592.39,-200.24 708.42,-176.36 811.7,-161.99 1146.02,-115.49 1530.72,-88.23 1800.11,-73.37"/>
<polygon fill="black" stroke="black" points="1799.94,-76.89 1809.73,-72.85 1799.56,-69.9 1799.94,-76.89"/>
</g>
<!-- funcX&#45;&gt;printf -->
<g id="edge5" class="edge">
<title>funcX&#45;&gt;printf</title>
<path fill="none" stroke="black" d="M1552.31,-356.05C2041.83,-391.14 3022.67,-439.22 3326.4,-289.99 3353.02,-276.91 3373.08,-248.93 3385.28,-227.62"/>
<polygon fill="black" stroke="black" points="3388.2,-229.57 3389.91,-219.12 3382.05,-226.23 3388.2,-229.57"/>
</g>
<!-- funcB&#45;&gt;printf -->
<g id="edge6" class="edge">
<title>funcB&#45;&gt;printf</title>
<path fill="none" stroke="black" d="M1600.88,-214.57C1654.15,-216.41 1708.7,-218 1760.22,-218.99 2456.19,-232.45 2631.37,-245.67 3326.4,-206.99 3334.65,-206.53 3343.41,-205.85 3351.88,-205.09"/>
<polygon fill="black" stroke="black" points="3352.05,-208.59 3361.68,-204.17 3351.4,-201.62 3352.05,-208.59"/>
</g>
<!-- funcA -->
<g id="node6" class="node">
<title>funcA</title>
<ellipse fill="none" stroke="black" cx="2142.76" cy="-180.99" rx="382.54" ry="28.99"/>
<text text-anchor="middle" x="2142.76" y="-184.19" font-family="Times,serif" font-size="14.00">void funcA (int n)</text>
<text text-anchor="middle" x="2142.76" y="-167.69" font-family="Times,serif" font-size="14.00">/Users/mac/rustmap&#45;clone/SCC_recursive_study/SCC_4_RecursiveDependencyDemo/dp2.i:429</text>
</g>
<!-- funcB&#45;&gt;funcA -->
<g id="edge7" class="edge">
<title>funcB&#45;&gt;funcA</title>
<path fill="none" stroke="black" d="M1605.47,-186.08C1652.57,-184.9 1701.31,-183.79 1749.34,-182.81"/>
<polygon fill="black" stroke="black" points="1749.1,-186.32 1759.03,-182.62 1748.96,-179.32 1749.1,-186.32"/>
</g>
<!-- funcC&#45;&gt;printf -->
<g id="edge12" class="edge">
<title>funcC&#45;&gt;printf</title>
<path fill="none" stroke="black" d="M2500.32,-68.55C2841.78,-79.21 3307.98,-95.42 3326.4,-104.99 3354.06,-119.36 3374.23,-149.58 3386.18,-172.09"/>
<polygon fill="black" stroke="black" points="3382.92,-173.41 3390.55,-180.77 3389.17,-170.26 3382.92,-173.41"/>
</g>
<!-- funcD -->
<g id="node8" class="node">
<title>funcD</title>
<ellipse fill="none" stroke="black" cx="2943.85" cy="-28.99" rx="382.54" ry="28.99"/>
<text text-anchor="middle" x="2943.85" y="-32.19" font-family="Times,serif" font-size="14.00">int funcD (int n)</text>
<text text-anchor="middle" x="2943.85" y="-15.69" font-family="Times,serif" font-size="14.00">/Users/mac/rustmap&#45;clone/SCC_recursive_study/SCC_4_RecursiveDependencyDemo/dp3.i:429</text>
</g>
<!-- funcC&#45;&gt;funcD -->
<g id="edge13" class="edge">
<title>funcC&#45;&gt;funcD</title>
<path fill="none" stroke="black" d="M2449.28,-40.32C2485.42,-38.88 2522.64,-37.47 2559.68,-36.15"/>
<polygon fill="black" stroke="black" points="2559.78,-39.65 2569.65,-35.8 2559.54,-32.66 2559.78,-39.65"/>
</g>
<!-- funcA&#45;&gt;printf -->
<g id="edge8" class="edge">
<title>funcA&#45;&gt;printf</title>
<path fill="none" stroke="black" d="M2518.23,-186.66C2820.08,-191.23 3215.78,-197.22 3351.14,-199.27"/>
<polygon fill="black" stroke="black" points="3350.73,-202.76 3360.79,-199.41 3350.84,-195.76 3350.73,-202.76"/>
</g>
<!-- funcA&#45;&gt;funcB -->
<g id="edge10" class="edge">
<title>funcA&#45;&gt;funcB</title>
<path fill="none" stroke="black" d="M1805.25,-194.91C1758.26,-196.08 1709.63,-197.18 1661.71,-198.16"/>
<polygon fill="black" stroke="black" points="1661.64,-194.66 1651.71,-198.36 1661.78,-201.66 1661.64,-194.66"/>
</g>
<!-- happy -->
<g id="node7" class="node">
<title>happy</title>
<ellipse fill="none" stroke="black" cx="2943.85" cy="-142.99" rx="382.54" ry="28.99"/>
<text text-anchor="middle" x="2943.85" y="-146.19" font-family="Times,serif" font-size="14.00">int happy (int n)</text>
<text text-anchor="middle" x="2943.85" y="-129.69" font-family="Times,serif" font-size="14.00">/Users/mac/rustmap&#45;clone/SCC_recursive_study/SCC_4_RecursiveDependencyDemo/dp3.i:438</text>
</g>
<!-- funcA&#45;&gt;happy -->
<g id="edge9" class="edge">
<title>funcA&#45;&gt;happy</title>
<path fill="none" stroke="black" d="M2468.78,-165.54C2514.19,-163.38 2560.93,-161.15 2606.54,-158.98"/>
<polygon fill="black" stroke="black" points="2606.46,-162.49 2616.28,-158.52 2606.13,-155.5 2606.46,-162.49"/>
</g>
<!-- happy&#45;&gt;printf -->
<g id="edge11" class="edge">
<title>happy&#45;&gt;printf</title>
<path fill="none" stroke="black" d="M3177.78,-166.3C3226.95,-172.04 3278.46,-178.67 3326.4,-185.99 3335.31,-187.35 3344.8,-189.02 3353.88,-190.73"/>
<polygon fill="black" stroke="black" points="3353.11,-194.14 3363.59,-192.6 3354.43,-187.27 3353.11,-194.14"/>
</g>
<!-- funcD&#45;&gt;printf -->
<g id="edge14" class="edge">
<title>funcD&#45;&gt;printf</title>
<path fill="none" stroke="black" d="M3271.48,-44.04C3290.79,-51.49 3309.29,-60.69 3326.4,-71.99 3361.36,-95.08 3381.3,-141.14 3391.11,-171.25"/>
<polygon fill="black" stroke="black" points="3387.66,-171.94 3393.94,-180.48 3394.35,-169.89 3387.66,-171.94"/>
</g>
<!-- funcD&#45;&gt;funcC -->
<g id="edge15" class="edge">
<title>funcD&#45;&gt;funcC</title>
<path fill="none" stroke="black" d="M2637.5,-46.65C2601.34,-48.1 2564.09,-49.5 2527.02,-50.83"/>
<polygon fill="black" stroke="black" points="2526.91,-47.33 2517.04,-51.18 2527.16,-54.32 2526.91,-47.33"/>
</g>
</g>
</svg>
