<?xml version="1.0" encoding="UTF-8" standalone="no"?>
<!DOCTYPE svg PUBLIC "-//W3C//DTD SVG 1.1//EN"
 "http://www.w3.org/Graphics/SVG/1.1/DTD/svg11.dtd">
<!-- Generated by graphviz version 2.43.0 (0)
 -->
<!-- Title: %3 Pages: 1 -->
<svg width="1999pt" height="320pt"
 viewBox="0.00 0.00 1999.15 319.93" xmlns="http://www.w3.org/2000/svg" xmlns:xlink="http://www.w3.org/1999/xlink">
<g id="graph0" class="graph" transform="scale(1 1) rotate(0) translate(4 315.93)">
<title>%3</title>
<polygon fill="white" stroke="transparent" points="-4,4 -4,-315.93 1995.15,-315.93 1995.15,4 -4,4"/>
<!-- funcB() -->
<g id="node1" class="node">
<title>funcB()</title>
<ellipse fill="none" stroke="black" cx="515.99" cy="-261" rx="44.39" ry="18"/>
<text text-anchor="middle" x="515.99" y="-257.3" font-family="Times,serif" font-size="14.00">funcB()</text>
</g>
<!-- printf() -->
<g id="node2" class="node">
<title>printf()</title>
<ellipse fill="none" stroke="black" cx="1946.96" cy="-188" rx="44.39" ry="18"/>
<text text-anchor="middle" x="1946.96" y="-184.3" font-family="Times,serif" font-size="14.00">printf()</text>
</g>
<!-- funcB()&#45;&gt;printf() -->
<g id="edge1" class="edge">
<title>funcB()&#45;&gt;printf()</title>
<path fill="none" stroke="black" d="M557.79,-266.87C696.53,-285.82 1162.59,-341.36 1542.76,-291 1676.49,-273.29 1829.63,-226.62 1902.73,-202.66"/>
<polygon fill="black" stroke="black" points="1904.1,-205.89 1912.5,-199.43 1901.91,-199.24 1904.1,-205.89"/>
</g>
<!-- void funcA(intn) -->
<g id="node3" class="node">
<title>void funcA(intn)</title>
<ellipse fill="none" stroke="black" cx="1005.32" cy="-261" rx="85.29" ry="18"/>
<text text-anchor="middle" x="1005.32" y="-257.3" font-family="Times,serif" font-size="14.00">void funcA(intn)</text>
</g>
<!-- funcB()&#45;&gt;void funcA(intn) -->
<g id="edge2" class="edge">
<title>funcB()&#45;&gt;void funcA(intn)</title>
<path fill="none" stroke="black" d="M556.04,-253.25C635.58,-246.57 817.76,-245.71 923.77,-250.67"/>
<polygon fill="black" stroke="black" points="923.63,-254.16 933.79,-251.16 923.97,-247.17 923.63,-254.16"/>
</g>
<!-- void funcA(intn)&#45;&gt;funcB() -->
<g id="edge10" class="edge">
<title>void funcA(intn)&#45;&gt;funcB()</title>
<path fill="none" stroke="black" d="M933.79,-270.84C833.69,-276.12 652.97,-275.69 566.15,-269.54"/>
<polygon fill="black" stroke="black" points="566.28,-266.04 556.04,-268.76 565.74,-273.01 566.28,-266.04"/>
</g>
<!-- void funcA(intn)&#45;&gt;printf() -->
<g id="edge8" class="edge">
<title>void funcA(intn)&#45;&gt;printf()</title>
<path fill="none" stroke="black" d="M1087.86,-265.53C1193.18,-270.33 1382.06,-275.43 1542.76,-261 1672.85,-249.32 1823.75,-216.84 1898.68,-199.41"/>
<polygon fill="black" stroke="black" points="1899.8,-202.74 1908.74,-197.05 1898.2,-195.93 1899.8,-202.74"/>
</g>
<!-- happy() -->
<g id="node6" class="node">
<title>happy()</title>
<ellipse fill="none" stroke="black" cx="1496.61" cy="-225" rx="46.29" ry="18"/>
<text text-anchor="middle" x="1496.61" y="-221.3" font-family="Times,serif" font-size="14.00">happy()</text>
</g>
<!-- void funcA(intn)&#45;&gt;happy() -->
<g id="edge9" class="edge">
<title>void funcA(intn)&#45;&gt;happy()</title>
<path fill="none" stroke="black" d="M1086.03,-255.14C1185.95,-247.79 1354.59,-235.38 1440.99,-229.02"/>
<polygon fill="black" stroke="black" points="1441.4,-232.5 1451.11,-228.28 1440.88,-225.52 1441.4,-232.5"/>
</g>
<!-- funcD() -->
<g id="node4" class="node">
<title>funcD()</title>
<ellipse fill="none" stroke="black" cx="1005.32" cy="-152" rx="44.69" ry="18"/>
<text text-anchor="middle" x="1005.32" y="-148.3" font-family="Times,serif" font-size="14.00">funcD()</text>
</g>
<!-- funcD()&#45;&gt;printf() -->
<g id="edge3" class="edge">
<title>funcD()&#45;&gt;printf()</title>
<path fill="none" stroke="black" d="M1050.07,-153.68C1204.53,-159.6 1724.04,-179.5 1892.63,-185.96"/>
<polygon fill="black" stroke="black" points="1892.63,-189.46 1902.76,-186.35 1892.9,-182.47 1892.63,-189.46"/>
</g>
<!-- funcC() -->
<g id="node5" class="node">
<title>funcC()</title>
<ellipse fill="none" stroke="black" cx="1496.61" cy="-79" rx="44.39" ry="18"/>
<text text-anchor="middle" x="1496.61" y="-75.3" font-family="Times,serif" font-size="14.00">funcC()</text>
</g>
<!-- funcD()&#45;&gt;funcC() -->
<g id="edge4" class="edge">
<title>funcD()&#45;&gt;funcC()</title>
<path fill="none" stroke="black" d="M1038.81,-140C1121.55,-119.78 1340.9,-86.51 1442.54,-78.13"/>
<polygon fill="black" stroke="black" points="1442.88,-81.62 1452.58,-77.36 1442.34,-74.64 1442.88,-81.62"/>
</g>
<!-- funcC()&#45;&gt;printf() -->
<g id="edge6" class="edge">
<title>funcC()&#45;&gt;printf()</title>
<path fill="none" stroke="black" d="M1535.07,-88.11C1616.43,-107.89 1809.19,-154.75 1898.73,-176.52"/>
<polygon fill="black" stroke="black" points="1898.06,-179.96 1908.61,-178.92 1899.72,-173.16 1898.06,-179.96"/>
</g>
<!-- funcC()&#45;&gt;funcD() -->
<g id="edge7" class="edge">
<title>funcC()&#45;&gt;funcD()</title>
<path fill="none" stroke="black" d="M1463.27,-90.97C1380.86,-111.13 1162.34,-144.3 1060.27,-152.8"/>
<polygon fill="black" stroke="black" points="1059.87,-149.32 1050.18,-153.59 1060.42,-156.3 1059.87,-149.32"/>
</g>
<!-- happy()&#45;&gt;printf() -->
<g id="edge5" class="edge">
<title>happy()&#45;&gt;printf()</title>
<path fill="none" stroke="black" d="M1541.83,-221.35C1624.92,-214.5 1804.01,-199.72 1893.22,-192.35"/>
<polygon fill="black" stroke="black" points="1893.71,-195.83 1903.38,-191.52 1893.13,-188.85 1893.71,-195.83"/>
</g>
<!-- int main() -->
<g id="node7" class="node">
<title>int main()</title>
<ellipse fill="none" stroke="black" cx="55.9" cy="-79" rx="55.79" ry="18"/>
<text text-anchor="middle" x="55.9" y="-75.3" font-family="Times,serif" font-size="14.00">int main()</text>
</g>
<!-- int main()&#45;&gt;funcB() -->
<g id="edge12" class="edge">
<title>int main()&#45;&gt;funcB()</title>
<path fill="none" stroke="black" d="M91.7,-92.83C174.92,-125.89 385.07,-209.39 474.11,-244.76"/>
<polygon fill="black" stroke="black" points="473.02,-248.09 483.6,-248.53 475.6,-241.59 473.02,-248.09"/>
</g>
<!-- int main()&#45;&gt;printf() -->
<g id="edge11" class="edge">
<title>int main()&#45;&gt;printf()</title>
<path fill="none" stroke="black" d="M106.15,-70.88C294.44,-41.29 986.05,54.06 1542.76,-43 1683.09,-67.47 1839.08,-136.46 1908.79,-169.68"/>
<polygon fill="black" stroke="black" points="1907.51,-172.95 1918.04,-174.12 1910.54,-166.64 1907.51,-172.95"/>
</g>
<!-- int main()&#45;&gt;funcC() -->
<g id="edge13" class="edge">
<title>int main()&#45;&gt;funcC()</title>
<path fill="none" stroke="black" d="M111.97,-79C340.92,-79 1215.93,-79 1442.03,-79"/>
<polygon fill="black" stroke="black" points="1442.3,-82.5 1452.3,-79 1442.3,-75.5 1442.3,-82.5"/>
</g>
<!-- v1 -->
<g id="node8" class="node">
<title>v1</title>
<polygon fill="#b2dfee" stroke="#b2dfee" points="82.9,-169 28.9,-169 28.9,-133 82.9,-133 82.9,-169"/>
<text text-anchor="middle" x="55.9" y="-147.3" font-family="Times,serif" font-size="14.00">v1</text>
</g>
<!-- v2&#45;dp1.i -->
<g id="node9" class="node">
<title>v2&#45;dp1.i</title>
<polygon fill="#b2dfee" stroke="#b2dfee" points="92.9,-241 18.9,-241 18.9,-205 92.9,-205 92.9,-241"/>
<text text-anchor="middle" x="55.9" y="-219.3" font-family="Times,serif" font-size="14.00">v2&#45;dp1.i</text>
</g>
</g>
</svg>
