<?xml version="1.0" encoding="UTF-8" standalone="no"?>
<!DOCTYPE svg PUBLIC "-//W3C//DTD SVG 1.1//EN"
 "http://www.w3.org/Graphics/SVG/1.1/DTD/svg11.dtd">
<!-- Generated by graphviz version 2.43.0 (0)
 -->
<!-- Title: cflow Pages: 1 -->
<svg width="358pt" height="266pt"
 viewBox="0.00 0.00 357.62 266.00" xmlns="http://www.w3.org/2000/svg" xmlns:xlink="http://www.w3.org/1999/xlink">
<g id="graph0" class="graph" transform="scale(1 1) rotate(0) translate(4 262)">
<title>cflow</title>
<polygon fill="white" stroke="transparent" points="-4,4 -4,-262 353.62,-262 353.62,4 -4,4"/>
<!-- main -->
<g id="node1" class="node">
<title>main</title>
<polygon fill="none" stroke="black" points="137.62,-258 46.62,-258 46.62,-220 137.62,-220 137.62,-258"/>
<text text-anchor="middle" x="92.12" y="-242.8" font-family="Times,serif" font-size="14.00">int main ()</text>
<text text-anchor="middle" x="92.12" y="-227.8" font-family="Times,serif" font-size="14.00">main.c:6</text>
</g>
<!-- printf -->
<g id="node2" class="node">
<title>printf</title>
<polygon fill="none" stroke="black" points="126.12,-36 58.12,-36 58.12,0 126.12,0 126.12,-36"/>
<text text-anchor="middle" x="92.12" y="-14.3" font-family="Times,serif" font-size="14.00">printf()</text>
</g>
<!-- main&#45;&gt;printf -->
<g id="edge1" class="edge">
<title>main&#45;&gt;printf</title>
<path fill="none" stroke="black" d="M52.37,-219.85C37.67,-211.12 22.35,-199.19 13.12,-184 -4.09,-155.69 6.12,-143.07 4.12,-110 3.1,-93.14 -4.19,-86.7 4.12,-72 13.82,-54.84 31.54,-42.62 48.56,-34.27"/>
<polygon fill="black" stroke="black" points="50.24,-37.35 57.89,-30.02 47.33,-30.98 50.24,-37.35"/>
</g>
<!-- funcB -->
<g id="node3" class="node">
<title>funcB</title>
<polygon fill="none" stroke="black" points="162.12,-184 22.12,-184 22.12,-146 162.12,-146 162.12,-184"/>
<text text-anchor="middle" x="92.12" y="-168.8" font-family="Times,serif" font-size="14.00">void funcB (int n)</text>
<text text-anchor="middle" x="92.12" y="-153.8" font-family="Times,serif" font-size="14.00">dp1.c:5</text>
</g>
<!-- main&#45;&gt;funcB -->
<g id="edge2" class="edge">
<title>main&#45;&gt;funcB</title>
<path fill="none" stroke="black" d="M92.12,-219.83C92.12,-212.13 92.12,-202.97 92.12,-194.42"/>
<polygon fill="black" stroke="black" points="95.62,-194.41 92.12,-184.41 88.62,-194.41 95.62,-194.41"/>
</g>
<!-- funcC -->
<g id="node4" class="node">
<title>funcC</title>
<polygon fill="none" stroke="black" points="329.12,-184 199.12,-184 199.12,-146 329.12,-146 329.12,-184"/>
<text text-anchor="middle" x="264.12" y="-168.8" font-family="Times,serif" font-size="14.00">int funcC (int n)</text>
<text text-anchor="middle" x="264.12" y="-153.8" font-family="Times,serif" font-size="14.00">dp4.c:5</text>
</g>
<!-- main&#45;&gt;funcC -->
<g id="edge3" class="edge">
<title>main&#45;&gt;funcC</title>
<path fill="none" stroke="black" d="M135.52,-219.83C158.63,-210.16 187.22,-198.19 211.58,-187.99"/>
<polygon fill="black" stroke="black" points="213.15,-191.13 221.03,-184.04 210.45,-184.67 213.15,-191.13"/>
</g>
<!-- funcB&#45;&gt;printf -->
<g id="edge4" class="edge">
<title>funcB&#45;&gt;printf</title>
<path fill="none" stroke="black" d="M50.58,-145.9C36.01,-137.28 21.26,-125.43 13.12,-110 5.24,-95.06 5.17,-86.9 13.12,-72 20.96,-57.3 34.89,-45.95 48.9,-37.6"/>
<polygon fill="black" stroke="black" points="50.99,-40.44 58.05,-32.54 47.6,-34.32 50.99,-40.44"/>
</g>
<!-- funcA -->
<g id="node5" class="node">
<title>funcA</title>
<polygon fill="none" stroke="black" points="162.12,-110 22.12,-110 22.12,-72 162.12,-72 162.12,-110"/>
<text text-anchor="middle" x="92.12" y="-94.8" font-family="Times,serif" font-size="14.00">void funcA (int n)</text>
<text text-anchor="middle" x="92.12" y="-79.8" font-family="Times,serif" font-size="14.00">dp2.c:5</text>
</g>
<!-- funcB&#45;&gt;funcA -->
<g id="edge5" class="edge">
<title>funcB&#45;&gt;funcA</title>
<path fill="none" stroke="black" d="M86.17,-145.83C85.42,-138.13 85.19,-128.97 85.5,-120.42"/>
<polygon fill="black" stroke="black" points="89,-120.62 86.14,-110.41 82.01,-120.17 89,-120.62"/>
</g>
<!-- funcC&#45;&gt;printf -->
<g id="edge8" class="edge">
<title>funcC&#45;&gt;printf</title>
<path fill="none" stroke="black" d="M245.49,-145.8C234.82,-135.35 221.19,-121.96 209.12,-110 192.15,-93.19 189.57,-87.17 171.12,-72 158.04,-61.24 142.76,-50.6 129.15,-41.71"/>
<polygon fill="black" stroke="black" points="130.78,-38.6 120.48,-36.13 127,-44.49 130.78,-38.6"/>
</g>
<!-- funcD -->
<g id="node6" class="node">
<title>funcD</title>
<polygon fill="none" stroke="black" points="349.62,-110 218.62,-110 218.62,-72 349.62,-72 349.62,-110"/>
<text text-anchor="middle" x="284.12" y="-94.8" font-family="Times,serif" font-size="14.00">int funcD (int n)</text>
<text text-anchor="middle" x="284.12" y="-79.8" font-family="Times,serif" font-size="14.00">dp3.c:5</text>
</g>
<!-- funcC&#45;&gt;funcD -->
<g id="edge9" class="edge">
<title>funcC&#45;&gt;funcD</title>
<path fill="none" stroke="black" d="M263.21,-145.83C264.62,-138.05 266.97,-128.77 269.7,-120.13"/>
<polygon fill="black" stroke="black" points="273.1,-121.01 273.03,-110.41 266.48,-118.74 273.1,-121.01"/>
</g>
<!-- funcA&#45;&gt;printf -->
<g id="edge6" class="edge">
<title>funcA&#45;&gt;printf</title>
<path fill="none" stroke="black" d="M92.12,-71.72C92.12,-63.97 92.12,-54.79 92.12,-46.27"/>
<polygon fill="black" stroke="black" points="95.62,-46 92.12,-36 88.62,-46 95.62,-46"/>
</g>
<!-- funcA&#45;&gt;funcB -->
<g id="edge7" class="edge">
<title>funcA&#45;&gt;funcB</title>
<path fill="none" stroke="black" d="M98.09,-110.41C98.83,-118.06 99.04,-127.11 98.73,-135.57"/>
<polygon fill="black" stroke="black" points="95.22,-135.63 98.07,-145.83 102.21,-136.08 95.22,-135.63"/>
</g>
<!-- funcD&#45;&gt;printf -->
<g id="edge10" class="edge">
<title>funcD&#45;&gt;printf</title>
<path fill="none" stroke="black" d="M235.17,-71.9C204.53,-60.57 165.38,-46.09 135.79,-35.15"/>
<polygon fill="black" stroke="black" points="136.74,-31.77 126.15,-31.58 134.31,-38.34 136.74,-31.77"/>
</g>
<!-- funcD&#45;&gt;funcC -->
<g id="edge11" class="edge">
<title>funcD&#45;&gt;funcC</title>
<path fill="none" stroke="black" d="M284.98,-110.41C283.56,-118.23 281.18,-127.51 278.45,-136.14"/>
<polygon fill="black" stroke="black" points="275.06,-135.24 275.12,-145.83 281.68,-137.51 275.06,-135.24"/>
</g>
</g>
</svg>
