<?xml version="1.0" encoding="UTF-8" standalone="no"?>
<!DOCTYPE svg PUBLIC "-//W3C//DTD SVG 1.1//EN"
 "http://www.w3.org/Graphics/SVG/1.1/DTD/svg11.dtd">
<!-- Generated by graphviz version 2.43.0 (0)
 -->
<!-- Title: cflow Pages: 1 -->
<svg width="248pt" height="118pt"
 viewBox="0.00 0.00 248.00 118.00" xmlns="http://www.w3.org/2000/svg" xmlns:xlink="http://www.w3.org/1999/xlink">
<g id="graph0" class="graph" transform="scale(1 1) rotate(0) translate(4 114)">
<title>cflow</title>
<polygon fill="white" stroke="transparent" points="-4,4 -4,-114 244,-114 244,4 -4,4"/>
<!-- main -->
<g id="node1" class="node">
<title>main</title>
<polygon fill="none" stroke="black" points="165.5,-110 74.5,-110 74.5,-72 165.5,-72 165.5,-110"/>
<text text-anchor="middle" x="120" y="-94.8" font-family="Times,serif" font-size="14.00">int main ()</text>
<text text-anchor="middle" x="120" y="-79.8" font-family="Times,serif" font-size="14.00">main.c:6</text>
</g>
<!-- printf -->
<g id="node2" class="node">
<title>printf</title>
<polygon fill="none" stroke="black" points="68,-36 0,-36 0,0 68,0 68,-36"/>
<text text-anchor="middle" x="34" y="-14.3" font-family="Times,serif" font-size="14.00">printf()</text>
</g>
<!-- main&#45;&gt;printf -->
<g id="edge1" class="edge">
<title>main&#45;&gt;printf</title>
<path fill="none" stroke="black" d="M97.85,-71.72C87.12,-62.85 74.1,-52.11 62.62,-42.63"/>
<polygon fill="black" stroke="black" points="64.54,-39.67 54.6,-36 60.08,-45.07 64.54,-39.67"/>
</g>
<!-- funcB -->
<g id="node3" class="node">
<title>funcB</title>
<polygon fill="none" stroke="black" points="154,-36 86,-36 86,0 154,0 154,-36"/>
<text text-anchor="middle" x="120" y="-14.3" font-family="Times,serif" font-size="14.00">funcB()</text>
</g>
<!-- main&#45;&gt;funcB -->
<g id="edge2" class="edge">
<title>main&#45;&gt;funcB</title>
<path fill="none" stroke="black" d="M120,-71.72C120,-63.97 120,-54.79 120,-46.27"/>
<polygon fill="black" stroke="black" points="123.5,-46 120,-36 116.5,-46 123.5,-46"/>
</g>
<!-- funcC -->
<g id="node4" class="node">
<title>funcC</title>
<polygon fill="none" stroke="black" points="240,-36 172,-36 172,0 240,0 240,-36"/>
<text text-anchor="middle" x="206" y="-14.3" font-family="Times,serif" font-size="14.00">funcC()</text>
</g>
<!-- main&#45;&gt;funcC -->
<g id="edge3" class="edge">
<title>main&#45;&gt;funcC</title>
<path fill="none" stroke="black" d="M142.15,-71.72C152.88,-62.85 165.9,-52.11 177.38,-42.63"/>
<polygon fill="black" stroke="black" points="179.92,-45.07 185.4,-36 175.46,-39.67 179.92,-45.07"/>
</g>
</g>
</svg>
